# xmcd CD database file
#
# Track frame offsets:
#	151
#	18862
#	37690
#	65277
#	76912
#	99457
#	119846
#	141150
#	148903
#
# Disc length: 2256 seconds
#
# Revision: 1
# Processed by: cddbd v1.5.2PL0 Copyright (c) Steve Scherf et al.
# Submitted via: CDex 1.81
#
DISCID=7408ce09
DTITLE=Christian Rudolph Musikverlag - Blues Live
DYEAR=1998
DGENRE=Blues
TTITLE0=Leihwein (Hans Blues and Boogie)
TTITLE1=Hey now baby (John Kirkbride)
TTITLE2=Boogie No. 1 (Georg Schroeter and Marc Breitfelder)
TTITLE3=One fine day (Wailin Willie)
TTITLE4=Mr. Blues (Bluebyrds)
TTITLE5=Spaceman Boogie (Alby Donnely's Big 3)
TTITLE6=Evrybody wants somebody (Juice)
TTITLE7=Opener in G (The Hammond Band)
TTITLE8=Gettin' drunk on you (Hans Blues and Boogie and the Hammond Band)
EXTD=YEAR: 1998
EXTT0=
EXTT1=
EXTT2=
EXTT3=
EXTT4=
EXTT5=
EXTT6=
EXTT7=
EXTT8=
PLAYORDER=
